# xmcd
#
# Track frame offsets: 
#        150
#        7911
#        27278
#        44177
#        60780
#        75887
#        92828
#        105816
#        123767
#        140093
#        158220
#        184969
#        202331
#        223232
#        251717
#
# Disc length: 3687 seconds
#
# Revision: 0
# Processed by: cddbd v1.5.2PL0 Copyright (c) Steve Scherf et al.
# Submitted via: ExactAudioCopyFreeDBPlugin 1.0
#
DISCID=ca0e650f
DTITLE=Ken Hensley - 2013 - Live Tales
DYEAR=2013
DGENRE=
TTITLE0=Introduction (1:43)
TTITLE1=Free Me (4:18)
TTITLE2=Longer Shadows (3:45)
TTITLE3=The Wizard (3:41)
TTITLE4=I Don't Wanna Wait (3:21)
TTITLE5=Wise Man (3:45)
TTITLE6=Through The Eyes Of A Child (2:53)
TTITLE7=Rain (3:59)
TTITLE8=Come To Me (3:37)
TTITLE9=There Comes A Time (1:52)
TTITLE10=July Morning (5:56)
TTITLE11=Slipping Away (3:51)
TTITLE12=Tales (4:38)
TTITLE13=I Close My Eyes (6:19)
TTITLE14=Lady In Black (5:31)
EXTD=
EXTT0=
EXTT1=
EXTT2=
EXTT3=
EXTT4=
EXTT5=
EXTT6=
EXTT7=
EXTT8=
EXTT9=
EXTT10=
EXTT11=
EXTT12=
EXTT13=
EXTT14=
PLAYORDER=
